<svg width="0" height="0" style="position:absolute"><defs><svg viewBox="0 0 48 48" id="delete"><path d="M12 38c0 2.21 1.79 4 4 4h16c2.21 0 4-1.79 4-4V14H12v24zM38 8h-7l-2-2H19l-2 2h-7v4h28V8z"/><path d="M0 0h48v48H0z" fill="none"/></svg><svg viewBox="0 0 48 48" id="edit"><path d="M35.5 14L28 6.5l-20 20V34h7.5l20-20zm5.91-5.91c.78-.78.78-2.05 0-2.83L36.74.59c-.78-.78-2.05-.78-2.83 0L30 4.5l7.5 7.5 3.91-3.91z"/><path d="M0 0h48v48H0z" fill="none"/><path fill-opacity=".36" d="M0 40h48v8H0z"/></svg></defs></svg>