<?xml version="1.0" encoding="utf-8"?><svg width="96" height="48" viewBox="0 0 96 48" xmlns="http://www.w3.org/2000/svg" xmlns:xlink="http://www.w3.org/1999/xlink"><view id="delete" viewBox="0 0 48 48"/><svg width="48" height="48" viewBox="0 0 48 48"><path d="M12 38c0 2.21 1.79 4 4 4h16c2.21 0 4-1.79 4-4V14H12v24zM38 8h-7l-2-2H19l-2 2h-7v4h28V8z"/><path d="M0 0h48v48H0z" fill="none"/></svg><view id="edit" viewBox="48 0 48 48"/><svg width="48" height="48" viewBox="0 0 48 48" x="48"><path d="M35.5 14L28 6.5l-20 20V34h7.5l20-20zm5.91-5.91c.78-.78.78-2.05 0-2.83L36.74.59c-.78-.78-2.05-.78-2.83 0L30 4.5l7.5 7.5 3.91-3.91z"/><path d="M0 0h48v48H0z" fill="none"/><path fill-opacity=".36" d="M0 40h48v8H0z"/></svg></svg>